<svg class="main-svg" xmlns="http://www.w3.org/2000/svg" xmlns:xlink="http://www.w3.org/1999/xlink" width="2400" height="1600" style="" viewBox="0 0 1200 800"><rect x="0" y="0" width="1200" height="800" style="fill: rgb(255, 255, 255); fill-opacity: 1;"/><defs id="defs-686e22"><g class="clips"><clipPath id="clip686e22xyplot" class="plotclip"><rect width="1040" height="572"/></clipPath><clipPath class="axesclip" id="clip686e22x"><rect x="80" y="0" width="1040" height="800"/></clipPath><clipPath class="axesclip" id="clip686e22y"><rect x="0" y="148" width="1200" height="572"/></clipPath><clipPath class="axesclip" id="clip686e22xy"><rect x="80" y="148" width="1040" height="572"/></clipPath></g><g class="gradients"/><g class="patterns"/></defs><g class="bglayer"/><g class="layer-below"><g class="imagelayer"/><g class="shapelayer"/></g><g class="cartesianlayer"><g class="subplot xy"><g class="layer-subplot"><g class="shapelayer"/><g class="imagelayer"/></g><g class="minor-gridlayer"><g class="x"/><g class="y"/></g><g class="gridlayer"><g class="x"/><g class="y"/></g><g class="zerolinelayer"/><g class="layer-between"><g class="shapelayer"/><g class="imagelayer"/></g><path class="xlines-below"/><path class="ylines-below"/><g class="overlines-below"/><g class="xaxislayer-below"/><g class="yaxislayer-below"/><g class="overaxes-below"/><g class="overplot"><g class="xy" transform="translate(80,148)" clip-path="url(#clip686e22xyplot)"><g class="scatterlayer mlayer"><g class="trace scatter trace9d0060" style="stroke-miterlimit: 2; opacity: 1;"><g class="fills"/><g class="errorbars"/><g class="lines"><path class="js-line" d="M520,42.37L520,127.11" style="vector-effect: none; fill: none; stroke: rgb(51, 51, 51); stroke-opacity: 1; stroke-width: 3px; opacity: 1;"/></g><g class="points"/><g class="text"/></g><g class="trace scatter trace538df2" style="stroke-miterlimit: 2; opacity: 1;"><g class="fills"/><g class="errorbars"/><g class="lines"><path class="js-line" d="M520,127.11L156,211.85" style="vector-effect: none; fill: none; stroke: rgb(51, 51, 51); stroke-opacity: 1; stroke-width: 3px; opacity: 1;"/></g><g class="points"/><g class="text"/></g><g class="trace scatter trace8b36a3" style="stroke-miterlimit: 2; opacity: 1;"><g class="fills"/><g class="errorbars"/><g class="lines"><path class="js-line" d="M520,127.11L520,211.85" style="vector-effect: none; fill: none; stroke: rgb(51, 51, 51); stroke-opacity: 1; stroke-width: 3px; opacity: 1;"/></g><g class="points"/><g class="text"/></g><g class="trace scatter trace9e1f24" style="stroke-miterlimit: 2; opacity: 1;"><g class="fills"/><g class="errorbars"/><g class="lines"><path class="js-line" d="M520,127.11L884,211.85" style="vector-effect: none; fill: none; stroke: rgb(51, 51, 51); stroke-opacity: 1; stroke-width: 3px; opacity: 1;"/></g><g class="points"/><g class="text"/></g><g class="trace scatter trace6d9106" style="stroke-miterlimit: 2; opacity: 1;"><g class="fills"/><g class="errorbars"/><g class="lines"><path class="js-line" d="M156,211.85L156,296.59" style="vector-effect: none; fill: none; stroke: rgb(51, 51, 51); stroke-opacity: 1; stroke-width: 3px; opacity: 1;"/></g><g class="points"/><g class="text"/></g><g class="trace scatter traced0c7ea" style="stroke-miterlimit: 2; opacity: 1;"><g class="fills"/><g class="errorbars"/><g class="lines"><path class="js-line" d="M520,211.85L520,296.59" style="vector-effect: none; fill: none; stroke: rgb(51, 51, 51); stroke-opacity: 1; stroke-width: 3px; opacity: 1;"/></g><g class="points"/><g class="text"/></g><g class="trace scatter trace0cdfea" style="stroke-miterlimit: 2; opacity: 1;"><g class="fills"/><g class="errorbars"/><g class="lines"><path class="js-line" d="M884,211.85L884,296.59" style="vector-effect: none; fill: none; stroke: rgb(51, 51, 51); stroke-opacity: 1; stroke-width: 3px; opacity: 1;"/></g><g class="points"/><g class="text"/></g><g class="trace scatter trace338a5d" style="stroke-miterlimit: 2; opacity: 1;"><g class="fills"/><g class="errorbars"/><g class="lines"><path class="js-line" d="M156,296.59L156,381.33" style="vector-effect: none; fill: none; stroke: rgb(51, 51, 51); stroke-opacity: 1; stroke-width: 3px; opacity: 1;"/></g><g class="points"/><g class="text"/></g><g class="trace scatter tracea5269f" style="stroke-miterlimit: 2; opacity: 1;"><g class="fills"/><g class="errorbars"/><g class="lines"><path class="js-line" d="M520,296.59L520,381.33" style="vector-effect: none; fill: none; stroke: rgb(51, 51, 51); stroke-opacity: 1; stroke-width: 3px; opacity: 1;"/></g><g class="points"/><g class="text"/></g><g class="trace scatter trace153e6e" style="stroke-miterlimit: 2; opacity: 1;"><g class="fills"/><g class="errorbars"/><g class="lines"><path class="js-line" d="M884,296.59L884,381.33" style="vector-effect: none; fill: none; stroke: rgb(51, 51, 51); stroke-opacity: 1; stroke-width: 3px; opacity: 1;"/></g><g class="points"/><g class="text"/></g><g class="trace scatter trace80bf38" style="stroke-miterlimit: 2; opacity: 1;"><g class="fills"/><g class="errorbars"/><g class="lines"><path class="js-line" d="M156,381.33L520,466.07" style="vector-effect: none; fill: none; stroke: rgb(51, 51, 51); stroke-opacity: 1; stroke-width: 3px; opacity: 1;"/></g><g class="points"/><g class="text"/></g><g class="trace scatter trace4a237d" style="stroke-miterlimit: 2; opacity: 1;"><g class="fills"/><g class="errorbars"/><g class="lines"><path class="js-line" d="M520,381.33L520,466.07" style="vector-effect: none; fill: none; stroke: rgb(51, 51, 51); stroke-opacity: 1; stroke-width: 3px; opacity: 1;"/></g><g class="points"/><g class="text"/></g><g class="trace scatter tracea39c70" style="stroke-miterlimit: 2; opacity: 1;"><g class="fills"/><g class="errorbars"/><g class="lines"><path class="js-line" d="M884,381.33L520,466.07" style="vector-effect: none; fill: none; stroke: rgb(51, 51, 51); stroke-opacity: 1; stroke-width: 3px; opacity: 1;"/></g><g class="points"/><g class="text"/></g><g class="trace scatter tracedef32b" style="stroke-miterlimit: 2; opacity: 1;"><g class="fills"/><g class="errorbars"/><g class="lines"><path class="js-line" d="M520,466.07L520,529.63" style="vector-effect: none; fill: none; stroke: rgb(51, 51, 51); stroke-opacity: 1; stroke-width: 3px; opacity: 1;"/></g><g class="points"/><g class="text"/></g><g class="trace scatter tracebe765a" style="stroke-miterlimit: 2; opacity: 1;"><g class="fills"/><g class="errorbars"/><g class="lines"/><g class="points"><path class="point" transform="translate(520,42.37)" d="M35,0A35,35 0 1,1 0,-35A35,35 0 0,1 35,0Z" style="opacity: 1; stroke-width: 3px; fill: rgb(31, 184, 205); fill-opacity: 1; stroke: rgb(255, 255, 255); stroke-opacity: 1;"/></g><g class="text"><g class="textpoint" transform="translate(0,3)"><text x="520" y="42.37" text-anchor="middle" style="font-family: 'Arial Black'; font-size: 12px; fill: rgb(19, 52, 59); fill-opacity: 1; white-space: pre;">Original Training Set</text></g></g></g><g class="trace scatter trace2a5666" style="stroke-miterlimit: 2; opacity: 1;"><g class="fills"/><g class="errorbars"/><g class="lines"/><g class="points"><path class="point" transform="translate(520,127.11)" d="M40,0A40,40 0 1,1 0,-40A40,40 0 0,1 40,0Z" style="opacity: 1; stroke-width: 3px; fill: rgb(46, 139, 87); fill-opacity: 1; stroke: rgb(255, 255, 255); stroke-opacity: 1;"/></g><g class="text"><g class="textpoint" transform="translate(0,-4.799999999999999)"><text x="520" y="127.11" text-anchor="middle" style="font-family: 'Arial Black'; font-size: 12px; fill: rgb(255, 255, 255); fill-opacity: 1; white-space: pre;"><tspan class="line" dy="0em" x="520" y="127.11">Bootstrap Sampling</tspan><tspan class="line" dy="1.3em" x="520" y="127.11">(with replacement)</tspan></text></g></g></g><g class="trace scatter trace57404b" style="stroke-miterlimit: 2; opacity: 1;"><g class="fills"/><g class="errorbars"/><g class="lines"/><g class="points"><path class="point" transform="translate(156,211.85)" d="M40,0A40,40 0 1,1 0,-40A40,40 0 0,1 40,0Z" style="opacity: 1; stroke-width: 3px; fill: rgb(93, 135, 143); fill-opacity: 1; stroke: rgb(255, 255, 255); stroke-opacity: 1;"/></g><g class="text"><g class="textpoint" transform="translate(0,-4.799999999999999)"><text x="156" y="211.85" text-anchor="middle" style="font-family: 'Arial Black'; font-size: 12px; fill: rgb(255, 255, 255); fill-opacity: 1; white-space: pre;"><tspan class="line" dy="0em" x="156" y="211.85">Bootstrap</tspan><tspan class="line" dy="1.3em" x="156" y="211.85">Sample 1</tspan></text></g></g></g><g class="trace scatter trace46476c" style="stroke-miterlimit: 2; opacity: 1;"><g class="fills"/><g class="errorbars"/><g class="lines"/><g class="points"><path class="point" transform="translate(520,211.85)" d="M40,0A40,40 0 1,1 0,-40A40,40 0 0,1 40,0Z" style="opacity: 1; stroke-width: 3px; fill: rgb(93, 135, 143); fill-opacity: 1; stroke: rgb(255, 255, 255); stroke-opacity: 1;"/></g><g class="text"><g class="textpoint" transform="translate(0,-4.799999999999999)"><text x="520" y="211.85" text-anchor="middle" style="font-family: 'Arial Black'; font-size: 12px; fill: rgb(255, 255, 255); fill-opacity: 1; white-space: pre;"><tspan class="line" dy="0em" x="520" y="211.85">Bootstrap</tspan><tspan class="line" dy="1.3em" x="520" y="211.85">Sample 2</tspan></text></g></g></g><g class="trace scatter tracee4078e" style="stroke-miterlimit: 2; opacity: 1;"><g class="fills"/><g class="errorbars"/><g class="lines"/><g class="points"><path class="point" transform="translate(884,211.85)" d="M40,0A40,40 0 1,1 0,-40A40,40 0 0,1 40,0Z" style="opacity: 1; stroke-width: 3px; fill: rgb(93, 135, 143); fill-opacity: 1; stroke: rgb(255, 255, 255); stroke-opacity: 1;"/></g><g class="text"><g class="textpoint" transform="translate(0,-4.799999999999999)"><text x="884" y="211.85" text-anchor="middle" style="font-family: 'Arial Black'; font-size: 12px; fill: rgb(255, 255, 255); fill-opacity: 1; white-space: pre;"><tspan class="line" dy="0em" x="884" y="211.85">Bootstrap</tspan><tspan class="line" dy="1.3em" x="884" y="211.85">Sample 3</tspan></text></g></g></g><g class="trace scatter trace03adc2" style="stroke-miterlimit: 2; opacity: 1;"><g class="fills"/><g class="errorbars"/><g class="lines"/><g class="points"><path class="point" transform="translate(156,296.59)" d="M40,0A40,40 0 1,1 0,-40A40,40 0 0,1 40,0Z" style="opacity: 1; stroke-width: 3px; fill: rgb(219, 69, 69); fill-opacity: 1; stroke: rgb(255, 255, 255); stroke-opacity: 1;"/></g><g class="text"><g class="textpoint" transform="translate(0,-4.799999999999999)"><text x="156" y="296.59" text-anchor="middle" style="font-family: 'Arial Black'; font-size: 12px; fill: rgb(255, 255, 255); fill-opacity: 1; white-space: pre;"><tspan class="line" dy="0em" x="156" y="296.59">Train</tspan><tspan class="line" dy="1.3em" x="156" y="296.59">Model 1</tspan></text></g></g></g><g class="trace scatter traced7d7e5" style="stroke-miterlimit: 2; opacity: 1;"><g class="fills"/><g class="errorbars"/><g class="lines"/><g class="points"><path class="point" transform="translate(520,296.59)" d="M40,0A40,40 0 1,1 0,-40A40,40 0 0,1 40,0Z" style="opacity: 1; stroke-width: 3px; fill: rgb(219, 69, 69); fill-opacity: 1; stroke: rgb(255, 255, 255); stroke-opacity: 1;"/></g><g class="text"><g class="textpoint" transform="translate(0,-4.799999999999999)"><text x="520" y="296.59" text-anchor="middle" style="font-family: 'Arial Black'; font-size: 12px; fill: rgb(255, 255, 255); fill-opacity: 1; white-space: pre;"><tspan class="line" dy="0em" x="520" y="296.59">Train</tspan><tspan class="line" dy="1.3em" x="520" y="296.59">Model 2</tspan></text></g></g></g><g class="trace scatter tracecfb764" style="stroke-miterlimit: 2; opacity: 1;"><g class="fills"/><g class="errorbars"/><g class="lines"/><g class="points"><path class="point" transform="translate(884,296.59)" d="M40,0A40,40 0 1,1 0,-40A40,40 0 0,1 40,0Z" style="opacity: 1; stroke-width: 3px; fill: rgb(219, 69, 69); fill-opacity: 1; stroke: rgb(255, 255, 255); stroke-opacity: 1;"/></g><g class="text"><g class="textpoint" transform="translate(0,-4.799999999999999)"><text x="884" y="296.59" text-anchor="middle" style="font-family: 'Arial Black'; font-size: 12px; fill: rgb(255, 255, 255); fill-opacity: 1; white-space: pre;"><tspan class="line" dy="0em" x="884" y="296.59">Train</tspan><tspan class="line" dy="1.3em" x="884" y="296.59">Model 3</tspan></text></g></g></g><g class="trace scatter tracec23548" style="stroke-miterlimit: 2; opacity: 1;"><g class="fills"/><g class="errorbars"/><g class="lines"/><g class="points"><path class="point" transform="translate(156,381.33)" d="M35,0A35,35 0 1,1 0,-35A35,35 0 0,1 35,0Z" style="opacity: 1; stroke-width: 3px; fill: rgb(93, 135, 143); fill-opacity: 1; stroke: rgb(255, 255, 255); stroke-opacity: 1;"/></g><g class="text"><g class="textpoint" transform="translate(0,3)"><text x="156" y="381.33" text-anchor="middle" style="font-family: 'Arial Black'; font-size: 12px; fill: rgb(255, 255, 255); fill-opacity: 1; white-space: pre;">Prediction 1</text></g></g></g><g class="trace scatter trace965539" style="stroke-miterlimit: 2; opacity: 1;"><g class="fills"/><g class="errorbars"/><g class="lines"/><g class="points"><path class="point" transform="translate(520,381.33)" d="M35,0A35,35 0 1,1 0,-35A35,35 0 0,1 35,0Z" style="opacity: 1; stroke-width: 3px; fill: rgb(93, 135, 143); fill-opacity: 1; stroke: rgb(255, 255, 255); stroke-opacity: 1;"/></g><g class="text"><g class="textpoint" transform="translate(0,3)"><text x="520" y="381.33" text-anchor="middle" style="font-family: 'Arial Black'; font-size: 12px; fill: rgb(255, 255, 255); fill-opacity: 1; white-space: pre;">Prediction 2</text></g></g></g><g class="trace scatter traced1b54a" style="stroke-miterlimit: 2; opacity: 1;"><g class="fills"/><g class="errorbars"/><g class="lines"/><g class="points"><path class="point" transform="translate(884,381.33)" d="M35,0A35,35 0 1,1 0,-35A35,35 0 0,1 35,0Z" style="opacity: 1; stroke-width: 3px; fill: rgb(93, 135, 143); fill-opacity: 1; stroke: rgb(255, 255, 255); stroke-opacity: 1;"/></g><g class="text"><g class="textpoint" transform="translate(0,3)"><text x="884" y="381.33" text-anchor="middle" style="font-family: 'Arial Black'; font-size: 12px; fill: rgb(255, 255, 255); fill-opacity: 1; white-space: pre;">Prediction 3</text></g></g></g><g class="trace scatter trace721183" style="stroke-miterlimit: 2; opacity: 1;"><g class="fills"/><g class="errorbars"/><g class="lines"/><g class="points"><path class="point" transform="translate(520,466.07)" d="M40,0A40,40 0 1,1 0,-40A40,40 0 0,1 40,0Z" style="opacity: 1; stroke-width: 3px; fill: rgb(46, 139, 87); fill-opacity: 1; stroke: rgb(255, 255, 255); stroke-opacity: 1;"/></g><g class="text"><g class="textpoint" transform="translate(0,-4.799999999999999)"><text x="520" y="466.07" text-anchor="middle" style="font-family: 'Arial Black'; font-size: 12px; fill: rgb(255, 255, 255); fill-opacity: 1; white-space: pre;"><tspan class="line" dy="0em" x="520" y="466.07">Aggregate</tspan><tspan class="line" dy="1.3em" x="520" y="466.07">(Voting/Averaging)</tspan></text></g></g></g><g class="trace scatter traceae3bce" style="stroke-miterlimit: 2; opacity: 1;"><g class="fills"/><g class="errorbars"/><g class="lines"/><g class="points"><path class="point" transform="translate(520,529.63)" d="M35,0A35,35 0 1,1 0,-35A35,35 0 0,1 35,0Z" style="opacity: 1; stroke-width: 3px; fill: rgb(210, 186, 76); fill-opacity: 1; stroke: rgb(255, 255, 255); stroke-opacity: 1;"/></g><g class="text"><g class="textpoint" transform="translate(0,3)"><text x="520" y="529.63" text-anchor="middle" style="font-family: 'Arial Black'; font-size: 12px; fill: rgb(19, 52, 59); fill-opacity: 1; white-space: pre;">Final Prediction</text></g></g></g></g></g></g><path class="xlines-above crisp" d="" style="fill: none; stroke-width: 1px; stroke: rgb(0, 0, 0); stroke-opacity: 0;"/><path class="ylines-above crisp" d="" style="fill: none; stroke-width: 1px; stroke: rgb(0, 0, 0); stroke-opacity: 0;"/><g class="overlines-above"/><g class="xaxislayer-above"><path class="xtick ticks crisp" d="M0,721v5" transform="translate(80,0)" style="stroke: rgb(94, 82, 64); stroke-opacity: 0.2; stroke-width: 1px;"/><path class="xtick ticks crisp" d="M0,721v5" transform="translate(288,0)" style="stroke: rgb(94, 82, 64); stroke-opacity: 0.2; stroke-width: 1px;"/><path class="xtick ticks crisp" d="M0,721v5" transform="translate(496,0)" style="stroke: rgb(94, 82, 64); stroke-opacity: 0.2; stroke-width: 1px;"/><path class="xtick ticks crisp" d="M0,721v5" transform="translate(704,0)" style="stroke: rgb(94, 82, 64); stroke-opacity: 0.2; stroke-width: 1px;"/><path class="xtick ticks crisp" d="M0,721v5" transform="translate(912,0)" style="stroke: rgb(94, 82, 64); stroke-opacity: 0.2; stroke-width: 1px;"/><path class="xtick ticks crisp" d="M0,721v5" transform="translate(1120,0)" style="stroke: rgb(94, 82, 64); stroke-opacity: 0.2; stroke-width: 1px;"/></g><g class="yaxislayer-above"><path class="ytick ticks crisp" d="M79,0h-5" transform="translate(0,698.81)" style="stroke: rgb(94, 82, 64); stroke-opacity: 0.2; stroke-width: 1px;"/><path class="ytick ticks crisp" d="M79,0h-5" transform="translate(0,614.0699999999999)" style="stroke: rgb(94, 82, 64); stroke-opacity: 0.2; stroke-width: 1px;"/><path class="ytick ticks crisp" d="M79,0h-5" transform="translate(0,529.3299999999999)" style="stroke: rgb(94, 82, 64); stroke-opacity: 0.2; stroke-width: 1px;"/><path class="ytick ticks crisp" d="M79,0h-5" transform="translate(0,444.59)" style="stroke: rgb(94, 82, 64); stroke-opacity: 0.2; stroke-width: 1px;"/><path class="ytick ticks crisp" d="M79,0h-5" transform="translate(0,359.85)" style="stroke: rgb(94, 82, 64); stroke-opacity: 0.2; stroke-width: 1px;"/><path class="ytick ticks crisp" d="M79,0h-5" transform="translate(0,275.11)" style="stroke: rgb(94, 82, 64); stroke-opacity: 0.2; stroke-width: 1px;"/><path class="ytick ticks crisp" d="M79,0h-5" transform="translate(0,190.37)" style="stroke: rgb(94, 82, 64); stroke-opacity: 0.2; stroke-width: 1px;"/></g><g class="overaxes-above"/></g></g><g class="polarlayer"/><g class="smithlayer"/><g class="ternarylayer"/><g class="geolayer"/><g class="funnelarealayer"/><g class="pielayer"/><g class="iciclelayer"/><g class="treemaplayer"/><g class="sunburstlayer"/><g class="glimages"/><defs id="topdefs-686e22"><g class="clips"/></defs><g class="layer-above"><g class="imagelayer"/><g class="shapelayer"/></g><g class="infolayer"><g class="g-gtitle"><text class="gtitle" x="600" y="68" text-anchor="middle" dy="-0.3em" style="opacity: 1; font-family: 'FK Grotesk Neue'; font-size: 28px; fill: rgb(19, 52, 59); fill-opacity: 1; font-weight: 1000; white-space: pre;">Bagging Algorithm Flowchart</text></g><g class="g-xtitle"/><g class="g-ytitle"/><g class="annotation" data-index="0" style="opacity: 1;"><g class="annotation-text-g" transform="rotate(0,600,198.84)"><g class="cursor-pointer" transform="translate(596,187)"><rect class="bg" x="0.5" y="0.5" width="7" height="23" style="stroke-width: 1px; stroke: rgb(0, 0, 0); stroke-opacity: 0; fill: rgb(0, 0, 0); fill-opacity: 0;"/><text class="annotation-text" text-anchor="middle" x="4.21875" y="17" style="font-family: 'FK Grotesk Neue'; font-size: 16px; fill: rgb(19, 52, 59); fill-opacity: 1; white-space: pre;"> </text></g></g><g class="annotation-arrow-g" style="opacity: 1;"><path d="M600,210.34L600,266.64" style="stroke-width: 3px; stroke: rgb(51, 51, 51); stroke-opacity: 1; stroke-dasharray: 0px, 0px, 51.62px, 56.3px;"/><path d="M-3.7,-2.5V2.5L1.3,0Z" transform="translate(600,261.96002197265625)rotate(90)scale(3.5999999999999996)" style="fill: rgb(51, 51, 51); stroke-width: 0;"/></g></g><g class="annotation" data-index="1" style="opacity: 1;"><g class="annotation-text-g" transform="rotate(0,581.94,279.32)"><g class="cursor-pointer" transform="translate(578,267)"><rect class="bg" x="0.5" y="0.5" width="7" height="23" style="stroke-width: 1px; stroke: rgb(0, 0, 0); stroke-opacity: 0; fill: rgb(0, 0, 0); fill-opacity: 0;"/><text class="annotation-text" text-anchor="middle" x="4.21875" y="17" style="font-family: 'FK Grotesk Neue'; font-size: 16px; fill: rgb(19, 52, 59); fill-opacity: 1; white-space: pre;"> </text></g></g><g class="annotation-arrow-g" style="opacity: 1;"><path d="M578.44,280.1347950469684L254.06,355.65" style="stroke-width: 3px; stroke: rgb(51, 51, 51); stroke-opacity: 1; stroke-dasharray: 0px, 0px, 328.374px, 333.054px;"/><path d="M-3.7,-2.5V2.5L1.3,0Z" transform="translate(258.61810302734375,354.5888671875)rotate(166.89464090585608)scale(3.5999999999999996)" style="fill: rgb(51, 51, 51); stroke-width: 0;"/></g></g><g class="annotation" data-index="2" style="opacity: 1;"><g class="annotation-text-g" transform="rotate(0,600,283.59000000000003)"><g class="cursor-pointer" transform="translate(596,272)"><rect class="bg" x="0.5" y="0.5" width="7" height="23" style="stroke-width: 1px; stroke: rgb(0, 0, 0); stroke-opacity: 0; fill: rgb(0, 0, 0); fill-opacity: 0;"/><text class="annotation-text" text-anchor="middle" x="4.21875" y="17" style="font-family: 'FK Grotesk Neue'; font-size: 16px; fill: rgb(19, 52, 59); fill-opacity: 1; white-space: pre;"> </text></g></g><g class="annotation-arrow-g" style="opacity: 1;"><path d="M600,295.09000000000003L600,351.38" style="stroke-width: 3px; stroke: rgb(51, 51, 51); stroke-opacity: 1; stroke-dasharray: 0px, 0px, 51.61px, 56.29px;"/><path d="M-3.7,-2.5V2.5L1.3,0Z" transform="translate(600,346.70001220703125)rotate(90)scale(3.5999999999999996)" style="fill: rgb(51, 51, 51); stroke-width: 0;"/></g></g><g class="annotation" data-index="3" style="opacity: 1;"><g class="annotation-text-g" transform="rotate(0,618.06,279.32)"><g class="cursor-pointer" transform="translate(614,267)"><rect class="bg" x="0.5" y="0.5" width="7" height="23" style="stroke-width: 1px; stroke: rgb(0, 0, 0); stroke-opacity: 0; fill: rgb(0, 0, 0); fill-opacity: 0;"/><text class="annotation-text" text-anchor="middle" x="4.21875" y="17" style="font-family: 'FK Grotesk Neue'; font-size: 16px; fill: rgb(19, 52, 59); fill-opacity: 1; white-space: pre;"> </text></g></g><g class="annotation-arrow-g" style="opacity: 1;"><path d="M621.56,280.1347950469684L945.94,355.65" style="stroke-width: 3px; stroke: rgb(51, 51, 51); stroke-opacity: 1; stroke-dasharray: 0px, 0px, 328.374px, 333.054px;"/><path d="M-3.7,-2.5V2.5L1.3,0Z" transform="translate(941.3818969726562,354.5888671875)rotate(13.103377088949287)scale(3.5999999999999996)" style="fill: rgb(51, 51, 51); stroke-width: 0;"/></g></g><g class="annotation" data-index="4" style="opacity: 1;"><g class="annotation-text-g" transform="rotate(0,236,368.33000000000004)"><g class="cursor-pointer" transform="translate(232,356)"><rect class="bg" x="0.5" y="0.5" width="7" height="23" style="stroke-width: 1px; stroke: rgb(0, 0, 0); stroke-opacity: 0; fill: rgb(0, 0, 0); fill-opacity: 0;"/><text class="annotation-text" text-anchor="middle" x="4.21875" y="17" style="font-family: 'FK Grotesk Neue'; font-size: 16px; fill: rgb(19, 52, 59); fill-opacity: 1; white-space: pre;"> </text></g></g><g class="annotation-arrow-g" style="opacity: 1;"><path d="M236,379.83000000000004L236,436.12" style="stroke-width: 3px; stroke: rgb(51, 51, 51); stroke-opacity: 1; stroke-dasharray: 0px, 0px, 51.61px, 56.29px;"/><path d="M-3.7,-2.5V2.5L1.3,0Z" transform="translate(236,431.44000244140625)rotate(90)scale(3.5999999999999996)" style="fill: rgb(51, 51, 51); stroke-width: 0;"/></g></g><g class="annotation" data-index="5" style="opacity: 1;"><g class="annotation-text-g" transform="rotate(0,600,368.33000000000004)"><g class="cursor-pointer" transform="translate(596,356)"><rect class="bg" x="0.5" y="0.5" width="7" height="23" style="stroke-width: 1px; stroke: rgb(0, 0, 0); stroke-opacity: 0; fill: rgb(0, 0, 0); fill-opacity: 0;"/><text class="annotation-text" text-anchor="middle" x="4.21875" y="17" style="font-family: 'FK Grotesk Neue'; font-size: 16px; fill: rgb(19, 52, 59); fill-opacity: 1; white-space: pre;"> </text></g></g><g class="annotation-arrow-g" style="opacity: 1;"><path d="M600,379.83000000000004L600,436.12" style="stroke-width: 3px; stroke: rgb(51, 51, 51); stroke-opacity: 1; stroke-dasharray: 0px, 0px, 51.61px, 56.29px;"/><path d="M-3.7,-2.5V2.5L1.3,0Z" transform="translate(600,431.44000244140625)rotate(90)scale(3.5999999999999996)" style="fill: rgb(51, 51, 51); stroke-width: 0;"/></g></g><g class="annotation" data-index="6" style="opacity: 1;"><g class="annotation-text-g" transform="rotate(0,964,368.33000000000004)"><g class="cursor-pointer" transform="translate(960,356)"><rect class="bg" x="0.5" y="0.5" width="7" height="23" style="stroke-width: 1px; stroke: rgb(0, 0, 0); stroke-opacity: 0; fill: rgb(0, 0, 0); fill-opacity: 0;"/><text class="annotation-text" text-anchor="middle" x="4.21875" y="17" style="font-family: 'FK Grotesk Neue'; font-size: 16px; fill: rgb(19, 52, 59); fill-opacity: 1; white-space: pre;"> </text></g></g><g class="annotation-arrow-g" style="opacity: 1;"><path d="M964,379.83000000000004L964,436.12" style="stroke-width: 3px; stroke: rgb(51, 51, 51); stroke-opacity: 1; stroke-dasharray: 0px, 0px, 51.61px, 56.29px;"/><path d="M-3.7,-2.5V2.5L1.3,0Z" transform="translate(964,431.44000244140625)rotate(90)scale(3.5999999999999996)" style="fill: rgb(51, 51, 51); stroke-width: 0;"/></g></g><g class="annotation" data-index="7" style="opacity: 1;"><g class="annotation-text-g" transform="rotate(0,236,453.07)"><g class="cursor-pointer" transform="translate(232,441)"><rect class="bg" x="0.5" y="0.5" width="7" height="23" style="stroke-width: 1px; stroke: rgb(0, 0, 0); stroke-opacity: 0; fill: rgb(0, 0, 0); fill-opacity: 0;"/><text class="annotation-text" text-anchor="middle" x="4.21875" y="17" style="font-family: 'FK Grotesk Neue'; font-size: 16px; fill: rgb(19, 52, 59); fill-opacity: 1; white-space: pre;"> </text></g></g><g class="annotation-arrow-g" style="opacity: 1;"><path d="M236,464.57L236,520.86" style="stroke-width: 3px; stroke: rgb(51, 51, 51); stroke-opacity: 1; stroke-dasharray: 0px, 0px, 51.61px, 56.29px;"/><path d="M-3.7,-2.5V2.5L1.3,0Z" transform="translate(236,516.1799926757812)rotate(90)scale(3.5999999999999996)" style="fill: rgb(51, 51, 51); stroke-width: 0;"/></g></g><g class="annotation" data-index="8" style="opacity: 1;"><g class="annotation-text-g" transform="rotate(0,600,453.07)"><g class="cursor-pointer" transform="translate(596,441)"><rect class="bg" x="0.5" y="0.5" width="7" height="23" style="stroke-width: 1px; stroke: rgb(0, 0, 0); stroke-opacity: 0; fill: rgb(0, 0, 0); fill-opacity: 0;"/><text class="annotation-text" text-anchor="middle" x="4.21875" y="17" style="font-family: 'FK Grotesk Neue'; font-size: 16px; fill: rgb(19, 52, 59); fill-opacity: 1; white-space: pre;"> </text></g></g><g class="annotation-arrow-g" style="opacity: 1;"><path d="M600,464.57L600,520.86" style="stroke-width: 3px; stroke: rgb(51, 51, 51); stroke-opacity: 1; stroke-dasharray: 0px, 0px, 51.61px, 56.29px;"/><path d="M-3.7,-2.5V2.5L1.3,0Z" transform="translate(600,516.1799926757812)rotate(90)scale(3.5999999999999996)" style="fill: rgb(51, 51, 51); stroke-width: 0;"/></g></g><g class="annotation" data-index="9" style="opacity: 1;"><g class="annotation-text-g" transform="rotate(0,964,453.07)"><g class="cursor-pointer" transform="translate(960,441)"><rect class="bg" x="0.5" y="0.5" width="7" height="23" style="stroke-width: 1px; stroke: rgb(0, 0, 0); stroke-opacity: 0; fill: rgb(0, 0, 0); fill-opacity: 0;"/><text class="annotation-text" text-anchor="middle" x="4.21875" y="17" style="font-family: 'FK Grotesk Neue'; font-size: 16px; fill: rgb(19, 52, 59); fill-opacity: 1; white-space: pre;"> </text></g></g><g class="annotation-arrow-g" style="opacity: 1;"><path d="M964,464.57L964,520.86" style="stroke-width: 3px; stroke: rgb(51, 51, 51); stroke-opacity: 1; stroke-dasharray: 0px, 0px, 51.61px, 56.29px;"/><path d="M-3.7,-2.5V2.5L1.3,0Z" transform="translate(964,516.1799926757812)rotate(90)scale(3.5999999999999996)" style="fill: rgb(51, 51, 51); stroke-width: 0;"/></g></g><g class="annotation" data-index="10" style="opacity: 1;"><g class="annotation-text-g" transform="rotate(0,254.06,533.54)"><g class="cursor-pointer" transform="translate(250,522)"><rect class="bg" x="0.5" y="0.5" width="7" height="23" style="stroke-width: 1px; stroke: rgb(0, 0, 0); stroke-opacity: 0; fill: rgb(0, 0, 0); fill-opacity: 0;"/><text class="annotation-text" text-anchor="middle" x="4.21875" y="17" style="font-family: 'FK Grotesk Neue'; font-size: 16px; fill: rgb(19, 52, 59); fill-opacity: 1; white-space: pre;"> </text></g></g><g class="annotation-arrow-g" style="opacity: 1;"><path d="M257.56,534.3547950469683L581.94,609.87" style="stroke-width: 3px; stroke: rgb(51, 51, 51); stroke-opacity: 1; stroke-dasharray: 0px, 0px, 328.374px, 333.054px;"/><path d="M-3.7,-2.5V2.5L1.3,0Z" transform="translate(577.3818969726562,608.8088989257812)rotate(13.120403152977259)scale(3.5999999999999996)" style="fill: rgb(51, 51, 51); stroke-width: 0;"/></g></g><g class="annotation" data-index="11" style="opacity: 1;"><g class="annotation-text-g" transform="rotate(0,600,537.81)"><g class="cursor-pointer" transform="translate(596,526)"><rect class="bg" x="0.5" y="0.5" width="7" height="23" style="stroke-width: 1px; stroke: rgb(0, 0, 0); stroke-opacity: 0; fill: rgb(0, 0, 0); fill-opacity: 0;"/><text class="annotation-text" text-anchor="middle" x="4.21875" y="17" style="font-family: 'FK Grotesk Neue'; font-size: 16px; fill: rgb(19, 52, 59); fill-opacity: 1; white-space: pre;"> </text></g></g><g class="annotation-arrow-g" style="opacity: 1;"><path d="M600,549.31L600,605.6" style="stroke-width: 3px; stroke: rgb(51, 51, 51); stroke-opacity: 1; stroke-dasharray: 0px, 0px, 51.61px, 56.29px;"/><path d="M-3.7,-2.5V2.5L1.3,0Z" transform="translate(600,600.9199829101562)rotate(90)scale(3.5999999999999996)" style="fill: rgb(51, 51, 51); stroke-width: 0;"/></g></g><g class="annotation" data-index="12" style="opacity: 1;"><g class="annotation-text-g" transform="rotate(0,945.94,533.54)"><g class="cursor-pointer" transform="translate(942,522)"><rect class="bg" x="0.5" y="0.5" width="7" height="23" style="stroke-width: 1px; stroke: rgb(0, 0, 0); stroke-opacity: 0; fill: rgb(0, 0, 0); fill-opacity: 0;"/><text class="annotation-text" text-anchor="middle" x="4.21875" y="17" style="font-family: 'FK Grotesk Neue'; font-size: 16px; fill: rgb(19, 52, 59); fill-opacity: 1; white-space: pre;"> </text></g></g><g class="annotation-arrow-g" style="opacity: 1;"><path d="M942.44,534.3547950469683L618.06,609.87" style="stroke-width: 3px; stroke: rgb(51, 51, 51); stroke-opacity: 1; stroke-dasharray: 0px, 0px, 328.374px, 333.054px;"/><path d="M-3.7,-2.5V2.5L1.3,0Z" transform="translate(622.6181030273438,608.8088989257812)rotate(166.87959684702273)scale(3.5999999999999996)" style="fill: rgb(51, 51, 51); stroke-width: 0;"/></g></g><g class="annotation" data-index="13" style="opacity: 1;"><g class="annotation-text-g" transform="rotate(0,600,622.55)"><g class="cursor-pointer" transform="translate(596,611)"><rect class="bg" x="0.5" y="0.5" width="7" height="23" style="stroke-width: 1px; stroke: rgb(0, 0, 0); stroke-opacity: 0; fill: rgb(0, 0, 0); fill-opacity: 0;"/><text class="annotation-text" text-anchor="middle" x="4.21875" y="17" style="font-family: 'FK Grotesk Neue'; font-size: 16px; fill: rgb(19, 52, 59); fill-opacity: 1; white-space: pre;"> </text></g></g><g class="annotation-arrow-g" style="opacity: 1;"><path d="M600,634.05L600,669.16" style="stroke-width: 3px; stroke: rgb(51, 51, 51); stroke-opacity: 1; stroke-dasharray: 0px, 0px, 30.43px, 35.11px;"/><path d="M-3.7,-2.5V2.5L1.3,0Z" transform="translate(600,664.47998046875)rotate(90)scale(3.5999999999999996)" style="fill: rgb(51, 51, 51); stroke-width: 0;"/></g></g></g></svg>