<svg class="main-svg" xmlns="http://www.w3.org/2000/svg" xmlns:xlink="http://www.w3.org/1999/xlink" width="2400" height="1600" style="" viewBox="0 0 1200 800"><rect x="0" y="0" width="1200" height="800" style="fill: rgb(243, 243, 238); fill-opacity: 1;"/><defs id="defs-7159bb"><g class="clips"><clipPath id="clip7159bbxyplot" class="plotclip"><rect width="1040" height="572"/></clipPath><clipPath class="axesclip" id="clip7159bbx"><rect x="80" y="0" width="1040" height="800"/></clipPath><clipPath class="axesclip" id="clip7159bby"><rect x="0" y="148" width="1200" height="572"/></clipPath><clipPath class="axesclip" id="clip7159bbxy"><rect x="80" y="148" width="1040" height="572"/></clipPath></g><g class="gradients"/><g class="patterns"/></defs><g class="bglayer"><rect class="bg" x="80" y="148" width="1040" height="572" style="fill: rgb(255, 255, 255); fill-opacity: 1; stroke-width: 0;"/></g><g class="layer-below"><g class="imagelayer"/><g class="shapelayer"/></g><g class="cartesianlayer"><g class="subplot xy"><g class="layer-subplot"><g class="shapelayer"/><g class="imagelayer"/></g><g class="minor-gridlayer"><g class="x"/><g class="y"/></g><g class="gridlayer"><g class="x"/><g class="y"/></g><g class="zerolinelayer"/><g class="layer-between"><g class="shapelayer"/><g class="imagelayer"/></g><path class="xlines-below"/><path class="ylines-below"/><g class="overlines-below"/><g class="xaxislayer-below"/><g class="yaxislayer-below"/><g class="overaxes-below"/><g class="overplot"><g class="xy" transform="translate(80,148)" clip-path="url(#clip7159bbxyplot)"><g class="scatterlayer mlayer"><g class="trace scatter tracea83f7a" style="stroke-miterlimit: 2; opacity: 1;"><g class="fills"/><g class="errorbars"/><g class="lines"/><g class="points"><path class="point" transform="translate(520,81.71)" d="M30,0A30,30 0 1,1 0,-30A30,30 0 0,1 30,0Z" style="opacity: 0.7; stroke-width: 2px; fill: rgb(31, 184, 205); fill-opacity: 1; stroke: rgb(255, 255, 255); stroke-opacity: 1;"/><path class="point" transform="translate(173.33,245.14)" d="M25,0A25,25 0 1,1 0,-25A25,25 0 0,1 25,0Z" style="opacity: 0.7; stroke-width: 2px; fill: rgb(219, 69, 69); fill-opacity: 1; stroke: rgb(255, 255, 255); stroke-opacity: 1;"/><path class="point" transform="translate(520,245.14)" d="M25,0A25,25 0 1,1 0,-25A25,25 0 0,1 25,0Z" style="opacity: 0.7; stroke-width: 2px; fill: rgb(219, 69, 69); fill-opacity: 1; stroke: rgb(255, 255, 255); stroke-opacity: 1;"/><path class="point" transform="translate(866.67,245.14)" d="M25,0A25,25 0 1,1 0,-25A25,25 0 0,1 25,0Z" style="opacity: 0.7; stroke-width: 2px; fill: rgb(219, 69, 69); fill-opacity: 1; stroke: rgb(255, 255, 255); stroke-opacity: 1;"/><path class="point" transform="translate(173.33,326.86)" d="M20,0A20,20 0 1,1 0,-20A20,20 0 0,1 20,0Z" style="opacity: 0.7; stroke-width: 2px; fill: rgb(46, 139, 87); fill-opacity: 1; stroke: rgb(255, 255, 255); stroke-opacity: 1;"/><path class="point" transform="translate(520,326.86)" d="M20,0A20,20 0 1,1 0,-20A20,20 0 0,1 20,0Z" style="opacity: 0.7; stroke-width: 2px; fill: rgb(46, 139, 87); fill-opacity: 1; stroke: rgb(255, 255, 255); stroke-opacity: 1;"/><path class="point" transform="translate(866.67,326.86)" d="M20,0A20,20 0 1,1 0,-20A20,20 0 0,1 20,0Z" style="opacity: 0.7; stroke-width: 2px; fill: rgb(46, 139, 87); fill-opacity: 1; stroke: rgb(255, 255, 255); stroke-opacity: 1;"/><path class="point" transform="translate(520,408.57)" d="M27.5,0A27.5,27.5 0 1,1 0,-27.5A27.5,27.5 0 0,1 27.5,0Z" style="opacity: 0.7; stroke-width: 2px; fill: rgb(93, 135, 143); fill-opacity: 1; stroke: rgb(255, 255, 255); stroke-opacity: 1;"/><path class="point" transform="translate(520,490.29)" d="M30,0A30,30 0 1,1 0,-30A30,30 0 0,1 30,0Z" style="opacity: 0.7; stroke-width: 2px; fill: rgb(210, 186, 76); fill-opacity: 1; stroke: rgb(255, 255, 255); stroke-opacity: 1;"/></g><g class="text"><g class="textpoint" transform="translate(0,2.5)"><text x="520" y="81.71" text-anchor="middle" style="font-family: 'FK Grotesk Neue'; font-size: 10px; fill: rgb(255, 255, 255); fill-opacity: 1; white-space: pre;">Training Data</text></g><g class="textpoint" transform="translate(0,2.5)"><text x="173.33" y="245.14" text-anchor="middle" style="font-family: 'FK Grotesk Neue'; font-size: 10px; fill: rgb(255, 255, 255); fill-opacity: 1; white-space: pre;">Base Model 1</text></g><g class="textpoint" transform="translate(0,2.5)"><text x="520" y="245.14" text-anchor="middle" style="font-family: 'FK Grotesk Neue'; font-size: 10px; fill: rgb(255, 255, 255); fill-opacity: 1; white-space: pre;">Base Model 2</text></g><g class="textpoint" transform="translate(0,2.5)"><text x="866.67" y="245.14" text-anchor="middle" style="font-family: 'FK Grotesk Neue'; font-size: 10px; fill: rgb(255, 255, 255); fill-opacity: 1; white-space: pre;">Base Model 3</text></g><g class="textpoint" transform="translate(0,2.5)"><text x="173.33" y="326.86" text-anchor="middle" style="font-family: 'FK Grotesk Neue'; font-size: 10px; fill: rgb(255, 255, 255); fill-opacity: 1; white-space: pre;">Prediction 1</text></g><g class="textpoint" transform="translate(0,2.5)"><text x="520" y="326.86" text-anchor="middle" style="font-family: 'FK Grotesk Neue'; font-size: 10px; fill: rgb(255, 255, 255); fill-opacity: 1; white-space: pre;">Prediction 2</text></g><g class="textpoint" transform="translate(0,2.5)"><text x="866.67" y="326.86" text-anchor="middle" style="font-family: 'FK Grotesk Neue'; font-size: 10px; fill: rgb(255, 255, 255); fill-opacity: 1; white-space: pre;">Prediction 3</text></g><g class="textpoint" transform="translate(0,2.5)"><text x="520" y="408.57" text-anchor="middle" style="font-family: 'FK Grotesk Neue'; font-size: 10px; fill: rgb(255, 255, 255); fill-opacity: 1; white-space: pre;">Combine Methods</text></g><g class="textpoint" transform="translate(0,2.5)"><text x="520" y="490.29" text-anchor="middle" style="font-family: 'FK Grotesk Neue'; font-size: 10px; fill: rgb(255, 255, 255); fill-opacity: 1; white-space: pre;">Final Prediction</text></g></g></g></g></g></g><path class="xlines-above crisp" d="" style="fill: none; stroke-width: 1px; stroke: rgb(0, 0, 0); stroke-opacity: 0;"/><path class="ylines-above crisp" d="" style="fill: none; stroke-width: 1px; stroke: rgb(0, 0, 0); stroke-opacity: 0;"/><g class="overlines-above"/><g class="xaxislayer-above"><path class="xtick ticks crisp" d="M0,721v5" transform="translate(80,0)" style="stroke: rgb(94, 82, 64); stroke-opacity: 0.2; stroke-width: 1px;"/><path class="xtick ticks crisp" d="M0,721v5" transform="translate(253.33,0)" style="stroke: rgb(94, 82, 64); stroke-opacity: 0.2; stroke-width: 1px;"/><path class="xtick ticks crisp" d="M0,721v5" transform="translate(426.67,0)" style="stroke: rgb(94, 82, 64); stroke-opacity: 0.2; stroke-width: 1px;"/><path class="xtick ticks crisp" d="M0,721v5" transform="translate(600,0)" style="stroke: rgb(94, 82, 64); stroke-opacity: 0.2; stroke-width: 1px;"/><path class="xtick ticks crisp" d="M0,721v5" transform="translate(773.33,0)" style="stroke: rgb(94, 82, 64); stroke-opacity: 0.2; stroke-width: 1px;"/><path class="xtick ticks crisp" d="M0,721v5" transform="translate(946.67,0)" style="stroke: rgb(94, 82, 64); stroke-opacity: 0.2; stroke-width: 1px;"/><path class="xtick ticks crisp" d="M0,721v5" transform="translate(1120,0)" style="stroke: rgb(94, 82, 64); stroke-opacity: 0.2; stroke-width: 1px;"/></g><g class="yaxislayer-above"><path class="ytick ticks crisp" d="M79,0h-5" transform="translate(0,720)" style="stroke: rgb(94, 82, 64); stroke-opacity: 0.2; stroke-width: 1px;"/><path class="ytick ticks crisp" d="M79,0h-5" transform="translate(0,638.29)" style="stroke: rgb(94, 82, 64); stroke-opacity: 0.2; stroke-width: 1px;"/><path class="ytick ticks crisp" d="M79,0h-5" transform="translate(0,556.5699999999999)" style="stroke: rgb(94, 82, 64); stroke-opacity: 0.2; stroke-width: 1px;"/><path class="ytick ticks crisp" d="M79,0h-5" transform="translate(0,474.86)" style="stroke: rgb(94, 82, 64); stroke-opacity: 0.2; stroke-width: 1px;"/><path class="ytick ticks crisp" d="M79,0h-5" transform="translate(0,393.14)" style="stroke: rgb(94, 82, 64); stroke-opacity: 0.2; stroke-width: 1px;"/><path class="ytick ticks crisp" d="M79,0h-5" transform="translate(0,311.43)" style="stroke: rgb(94, 82, 64); stroke-opacity: 0.2; stroke-width: 1px;"/><path class="ytick ticks crisp" d="M79,0h-5" transform="translate(0,229.70999999999998)" style="stroke: rgb(94, 82, 64); stroke-opacity: 0.2; stroke-width: 1px;"/><path class="ytick ticks crisp" d="M79,0h-5" transform="translate(0,148)" style="stroke: rgb(94, 82, 64); stroke-opacity: 0.2; stroke-width: 1px;"/></g><g class="overaxes-above"/></g></g><g class="polarlayer"/><g class="smithlayer"/><g class="ternarylayer"/><g class="geolayer"/><g class="funnelarealayer"/><g class="pielayer"/><g class="iciclelayer"/><g class="treemaplayer"/><g class="sunburstlayer"/><g class="glimages"/><defs id="topdefs-7159bb"><g class="clips"/></defs><g class="layer-above"><g class="imagelayer"/><g class="shapelayer"/></g><g class="infolayer"><g class="g-gtitle"><text class="gtitle" x="600" y="68" text-anchor="middle" dy="-0.3em" style="opacity: 1; font-family: 'FK Grotesk Neue'; font-size: 28px; fill: rgb(19, 52, 59); fill-opacity: 1; font-weight: 1000; white-space: pre;">Ensemble Learning Workflow</text></g><g class="g-xtitle"/><g class="g-ytitle"/><g class="annotation" data-index="0" style="opacity: 1;"><g class="annotation-text-g" transform="rotate(0,600,229.70999999999998)"><g class="cursor-pointer" transform="translate(596,218)"><rect class="bg" x="0.5" y="0.5" width="7" height="23" style="stroke-width: 1px; stroke: rgb(0, 0, 0); stroke-opacity: 0; fill: rgb(0, 0, 0); fill-opacity: 0;"/><text class="annotation-text" text-anchor="middle" x="4.21875" y="17" style="font-family: 'FK Grotesk Neue'; font-size: 16px; fill: rgb(19, 52, 59); fill-opacity: 1; white-space: pre;"> </text></g></g><g class="annotation-arrow-g" style="opacity: 1;"><path d="M596.5,231.35999855770615L253.33,393.14" style="stroke-width: 2px; stroke: rgb(51, 51, 51); stroke-opacity: 1; stroke-dasharray: 0px, 0px, 376.792px, 379.392px;"/><path d="M-3.7,-2.5V2.5L1.3,0Z" transform="translate(255.68177795410156,392.03131103515625)rotate(154.7644415616794)scale(2)" style="fill: rgb(51, 51, 51); stroke-width: 0;"/></g></g><g class="annotation" data-index="1" style="opacity: 1;"><g class="annotation-text-g" transform="rotate(0,600,229.70999999999998)"><g class="cursor-pointer" transform="translate(596,218)"><rect class="bg" x="0.5" y="0.5" width="7" height="23" style="stroke-width: 1px; stroke: rgb(0, 0, 0); stroke-opacity: 0; fill: rgb(0, 0, 0); fill-opacity: 0;"/><text class="annotation-text" text-anchor="middle" x="4.21875" y="17" style="font-family: 'FK Grotesk Neue'; font-size: 16px; fill: rgb(19, 52, 59); fill-opacity: 1; white-space: pre;"> </text></g></g><g class="annotation-arrow-g" style="opacity: 1;"><path d="M600,241.20999999999998L600,393.14" style="stroke-width: 2px; stroke: rgb(51, 51, 51); stroke-opacity: 1; stroke-dasharray: 0px, 0px, 149.33px, 151.93px;"/><path d="M-3.7,-2.5V2.5L1.3,0Z" transform="translate(600,390.5400085449219)rotate(90)scale(2)" style="fill: rgb(51, 51, 51); stroke-width: 0;"/></g></g><g class="annotation" data-index="2" style="opacity: 1;"><g class="annotation-text-g" transform="rotate(0,600,229.70999999999998)"><g class="cursor-pointer" transform="translate(596,218)"><rect class="bg" x="0.5" y="0.5" width="7" height="23" style="stroke-width: 1px; stroke: rgb(0, 0, 0); stroke-opacity: 0; fill: rgb(0, 0, 0); fill-opacity: 0;"/><text class="annotation-text" text-anchor="middle" x="4.21875" y="17" style="font-family: 'FK Grotesk Neue'; font-size: 16px; fill: rgb(19, 52, 59); fill-opacity: 1; white-space: pre;"> </text></g></g><g class="annotation-arrow-g" style="opacity: 1;"><path d="M603.5,231.35999855770615L946.67,393.14" style="stroke-width: 2px; stroke: rgb(51, 51, 51); stroke-opacity: 1; stroke-dasharray: 0px, 0px, 376.792px, 379.392px;"/><path d="M-3.7,-2.5V2.5L1.3,0Z" transform="translate(944.3182373046875,392.03131103515625)rotate(25.23555843832059)scale(2)" style="fill: rgb(51, 51, 51); stroke-width: 0;"/></g></g><g class="annotation" data-index="3" style="opacity: 1;"><g class="annotation-text-g" transform="rotate(0,253.33,393.14)"><g class="cursor-pointer" transform="translate(249,381)"><rect class="bg" x="0.5" y="0.5" width="7" height="23" style="stroke-width: 1px; stroke: rgb(0, 0, 0); stroke-opacity: 0; fill: rgb(0, 0, 0); fill-opacity: 0;"/><text class="annotation-text" text-anchor="middle" x="4.21875" y="17" style="font-family: 'FK Grotesk Neue'; font-size: 16px; fill: rgb(19, 52, 59); fill-opacity: 1; white-space: pre;"> </text></g></g><g class="annotation-arrow-g" style="opacity: 1;"><path d="M253.33,404.64L253.33,474.86" style="stroke-width: 2px; stroke: rgb(51, 51, 51); stroke-opacity: 1; stroke-dasharray: 0px, 0px, 67.62px, 70.22px;"/><path d="M-3.7,-2.5V2.5L1.3,0Z" transform="translate(253.3300018310547,472.2599792480469)rotate(90)scale(2)" style="fill: rgb(51, 51, 51); stroke-width: 0;"/></g></g><g class="annotation" data-index="4" style="opacity: 1;"><g class="annotation-text-g" transform="rotate(0,600,393.14)"><g class="cursor-pointer" transform="translate(596,381)"><rect class="bg" x="0.5" y="0.5" width="7" height="23" style="stroke-width: 1px; stroke: rgb(0, 0, 0); stroke-opacity: 0; fill: rgb(0, 0, 0); fill-opacity: 0;"/><text class="annotation-text" text-anchor="middle" x="4.21875" y="17" style="font-family: 'FK Grotesk Neue'; font-size: 16px; fill: rgb(19, 52, 59); fill-opacity: 1; white-space: pre;"> </text></g></g><g class="annotation-arrow-g" style="opacity: 1;"><path d="M600,404.64L600,474.86" style="stroke-width: 2px; stroke: rgb(51, 51, 51); stroke-opacity: 1; stroke-dasharray: 0px, 0px, 67.62px, 70.22px;"/><path d="M-3.7,-2.5V2.5L1.3,0Z" transform="translate(600,472.2599792480469)rotate(90)scale(2)" style="fill: rgb(51, 51, 51); stroke-width: 0;"/></g></g><g class="annotation" data-index="5" style="opacity: 1;"><g class="annotation-text-g" transform="rotate(0,946.67,393.14)"><g class="cursor-pointer" transform="translate(943,381)"><rect class="bg" x="0.5" y="0.5" width="7" height="23" style="stroke-width: 1px; stroke: rgb(0, 0, 0); stroke-opacity: 0; fill: rgb(0, 0, 0); fill-opacity: 0;"/><text class="annotation-text" text-anchor="middle" x="4.21875" y="17" style="font-family: 'FK Grotesk Neue'; font-size: 16px; fill: rgb(19, 52, 59); fill-opacity: 1; white-space: pre;"> </text></g></g><g class="annotation-arrow-g" style="opacity: 1;"><path d="M946.67,404.64L946.67,474.86" style="stroke-width: 2px; stroke: rgb(51, 51, 51); stroke-opacity: 1; stroke-dasharray: 0px, 0px, 67.62px, 70.22px;"/><path d="M-3.7,-2.5V2.5L1.3,0Z" transform="translate(946.6699829101562,472.2599792480469)rotate(90)scale(2)" style="fill: rgb(51, 51, 51); stroke-width: 0;"/></g></g><g class="annotation" data-index="6" style="opacity: 1;"><g class="annotation-text-g" transform="rotate(0,253.33,474.86)"><g class="cursor-pointer" transform="translate(249,463)"><rect class="bg" x="0.5" y="0.5" width="7" height="23" style="stroke-width: 1px; stroke: rgb(0, 0, 0); stroke-opacity: 0; fill: rgb(0, 0, 0); fill-opacity: 0;"/><text class="annotation-text" text-anchor="middle" x="4.21875" y="17" style="font-family: 'FK Grotesk Neue'; font-size: 16px; fill: rgb(19, 52, 59); fill-opacity: 1; white-space: pre;"> </text></g></g><g class="annotation-arrow-g" style="opacity: 1;"><path d="M256.83000000000004,475.6849487985693L600,556.5699999999999" style="stroke-width: 2px; stroke: rgb(51, 51, 51); stroke-opacity: 1; stroke-dasharray: 0px, 0px, 349.973px, 352.573px;"/><path d="M-3.7,-2.5V2.5L1.3,0Z" transform="translate(597.4693603515625,555.9735107421875)rotate(13.264544140836717)scale(2)" style="fill: rgb(51, 51, 51); stroke-width: 0;"/></g></g><g class="annotation" data-index="7" style="opacity: 1;"><g class="annotation-text-g" transform="rotate(0,600,474.86)"><g class="cursor-pointer" transform="translate(596,463)"><rect class="bg" x="0.5" y="0.5" width="7" height="23" style="stroke-width: 1px; stroke: rgb(0, 0, 0); stroke-opacity: 0; fill: rgb(0, 0, 0); fill-opacity: 0;"/><text class="annotation-text" text-anchor="middle" x="4.21875" y="17" style="font-family: 'FK Grotesk Neue'; font-size: 16px; fill: rgb(19, 52, 59); fill-opacity: 1; white-space: pre;"> </text></g></g><g class="annotation-arrow-g" style="opacity: 1;"><path d="M600,486.36L600,556.5699999999999" style="stroke-width: 2px; stroke: rgb(51, 51, 51); stroke-opacity: 1; stroke-dasharray: 0px, 0px, 67.61px, 70.21px;"/><path d="M-3.7,-2.5V2.5L1.3,0Z" transform="translate(600,553.9700317382812)rotate(90)scale(2)" style="fill: rgb(51, 51, 51); stroke-width: 0;"/></g></g><g class="annotation" data-index="8" style="opacity: 1;"><g class="annotation-text-g" transform="rotate(0,946.67,474.86)"><g class="cursor-pointer" transform="translate(943,463)"><rect class="bg" x="0.5" y="0.5" width="7" height="23" style="stroke-width: 1px; stroke: rgb(0, 0, 0); stroke-opacity: 0; fill: rgb(0, 0, 0); fill-opacity: 0;"/><text class="annotation-text" text-anchor="middle" x="4.21875" y="17" style="font-family: 'FK Grotesk Neue'; font-size: 16px; fill: rgb(19, 52, 59); fill-opacity: 1; white-space: pre;"> </text></g></g><g class="annotation-arrow-g" style="opacity: 1;"><path d="M943.17,475.6849487985693L600,556.5699999999999" style="stroke-width: 2px; stroke: rgb(51, 51, 51); stroke-opacity: 1; stroke-dasharray: 0px, 0px, 349.973px, 352.573px;"/><path d="M-3.7,-2.5V2.5L1.3,0Z" transform="translate(602.5306396484375,555.9735107421875)rotate(166.7354558591633)scale(2)" style="fill: rgb(51, 51, 51); stroke-width: 0;"/></g></g><g class="annotation" data-index="9" style="opacity: 1;"><g class="annotation-text-g" transform="rotate(0,600,556.5699999999999)"><g class="cursor-pointer" transform="translate(596,545)"><rect class="bg" x="0.5" y="0.5" width="7" height="23" style="stroke-width: 1px; stroke: rgb(0, 0, 0); stroke-opacity: 0; fill: rgb(0, 0, 0); fill-opacity: 0;"/><text class="annotation-text" text-anchor="middle" x="4.21875" y="17" style="font-family: 'FK Grotesk Neue'; font-size: 16px; fill: rgb(19, 52, 59); fill-opacity: 1; white-space: pre;"> </text></g></g><g class="annotation-arrow-g" style="opacity: 1;"><path d="M600,568.0699999999999L600,638.29" style="stroke-width: 2px; stroke: rgb(51, 51, 51); stroke-opacity: 1; stroke-dasharray: 0px, 0px, 67.62px, 70.22px;"/><path d="M-3.7,-2.5V2.5L1.3,0Z" transform="translate(600,635.6900024414062)rotate(90)scale(2)" style="fill: rgb(51, 51, 51); stroke-width: 0;"/></g></g><g class="annotation" data-index="10" style="opacity: 1;"><g class="annotation-text-g" transform="rotate(0,600,581.0899999999999)"><g class="cursor-pointer" transform="translate(548,574)"><rect class="bg" x="0.5" y="0.5" width="104" height="14" style="stroke-width: 1px; stroke: rgb(0, 0, 0); stroke-opacity: 0; fill: rgb(0, 0, 0); fill-opacity: 0;"/><text class="annotation-text" text-anchor="middle" x="52.578125" y="10" style="font-family: 'FK Grotesk Neue'; font-size: 8px; fill: rgb(51, 51, 51); fill-opacity: 1; white-space: pre;">Voting/Averaging/Stacking</text></g></g></g></g></svg>